name pl14_filtered_grf.mot
datacolumns 37
datarows 11
range 1.327500 1.332500
endheader
time	1_ground_force_vx	1_ground_force_vy	1_ground_force_vz	1_ground_force_px	1_ground_force_py	1_ground_force_pz	1_ground_torque_x	1_ground_torque_y	1_ground_torque_z	2_ground_force_vx	2_ground_force_vy	2_ground_force_vz	2_ground_force_px	2_ground_force_py	2_ground_force_pz	2_ground_torque_x	2_ground_torque_y	2_ground_torque_z	3_ground_force_vx	3_ground_force_vy	3_ground_force_vz	3_ground_force_px	3_ground_force_py	3_ground_force_pz	3_ground_torque_x	3_ground_torque_y	3_ground_torque_z	4_ground_force_vx	4_ground_force_vy	4_ground_force_vz	4_ground_force_px	4_ground_force_py	4_ground_force_pz	4_ground_torque_x	4_ground_torque_y	4_ground_torque_z
            1.327500	            4.272316	          -33.858254	          -33.612913	            0.146847	            0.000000	            0.267286	           -0.006116	            0.048466	            0.048115	            6.138373	          -58.474837	          -37.571398	           -0.144500	            0.000000	            0.286390	           -0.078307	            0.745964	            0.479299	           21.706833	            1.881955	            0.176641	            0.375720	            1.310829	            1.913753	           -0.090904	           -0.007881	           -0.000740	          -19.690342	           -0.317156	            1.751875	           -0.265473	            1.309865	            1.924687	            0.012746	            0.000205	           -0.001134
            1.328000	            3.558297	          -27.130750	          -29.963468	            0.150229	            0.000000	            0.269061	           -0.004194	            0.031979	            0.035318	            7.199831	          -51.935547	          -37.045332	           -0.147037	            0.000000	            0.285089	           -0.090155	            0.650331	            0.463877	           21.710881	            1.865693	            0.178032	            0.375727	            1.310830	            1.913752	           -0.091190	           -0.007836	           -0.000748	          -19.671261	           -0.332151	            1.745882	           -0.265472	            1.309866	            1.924689	            0.012869	            0.000217	           -0.001142
            1.328500	            2.718938	          -19.190953	          -25.516937	            0.155824	            0.000000	            0.272356	            0.000144	           -0.001014	           -0.001349	            8.299608	          -43.940033	          -35.943716	           -0.150522	            0.000000	            0.283422	           -0.105747	            0.559846	            0.457964	           21.716132	            1.850354	            0.179299	            0.375734	            1.310832	            1.913752	           -0.091491	           -0.007796	           -0.000755	          -19.651557	           -0.348102	            1.739456	           -0.265472	            1.309867	            1.924691	            0.013005	            0.000230	           -0.001151
            1.329000	            1.750220	           -9.987720	          -20.239461	            0.165920	            0.000000	            0.281723	            0.009788	           -0.055856	           -0.113188	            9.431838	          -34.419338	          -34.217040	           -0.155479	            0.000000	            0.281192	           -0.133013	            0.485402	            0.482549	           21.722558	            1.836057	            0.180425	            0.375741	            1.310834	            1.913751	           -0.091807	           -0.007760	           -0.000763	          -19.631305	           -0.364879	            1.732580	           -0.265471	            1.309868	            1.924693	            0.013155	            0.000245	           -0.001161
            1.329500	            0.648931	            0.524030	          -14.101994	            0.450000	            0.000000	            0.900000	            0.544692	           -4.204910	           -0.605617	           10.590121	          -23.312169	          -31.817293	           -0.162541	            0.000000	            0.278362	           -0.196022	            0.431505	            0.588934	           21.730124	            1.822910	            0.181392	            0.375749	            1.310836	            1.913751	           -0.092135	           -0.007729	           -0.000769	          -19.610577	           -0.382341	            1.725240	           -0.265470	            1.309869	            1.924695	            0.013322	            0.000260	           -0.001172
            1.330000	           -0.587258	           12.382640	           -7.080875	            0.131154	            0.000000	            0.242391	           -0.033885	            0.714487	           -0.408571	           11.767577	          -10.565890	          -28.698501	           -0.171559	            0.000000	            0.278316	           -0.362535	            0.325513	            0.884142	           21.738786	            1.811006	            0.182180	            0.375756	            1.310837	            1.913750	           -0.092473	           -0.007704	           -0.000775	          -19.589448	           -0.400346	            1.717427	           -0.265469	            1.309870	            1.924697	            0.013507	            0.000276	           -0.001184
            1.330500	           -1.959732	           25.619077	            0.841628	            0.115799	            0.000000	            0.252003	           -0.054410	            0.711292	            0.023367	           12.956910	            3.862529	          -24.817271	           -0.306800	            0.000000	            0.392000	           -0.095790	            1.764735	            1.969199	           21.748494	            1.800427	            0.182688	            0.375762	            1.310841	            1.913751	           -0.092820	           -0.007684	           -0.000780	          -19.567998	           -0.418746	            1.709059	           -0.265468	            1.309871	            1.924700	            0.013712	            0.000293	           -0.001198
            1.331000	           -3.468863	           40.256346	            9.676799	            0.119418	            0.000000	            0.255996	           -0.053809	            0.624453	            0.150106	           14.150480	           20.005614	          -20.133342	           -0.132195	            0.000000	            0.268818	           -0.899908	           -1.272269	            1.280392	           21.759186	            1.791238	            0.182980	            0.375769	            1.310844	            1.913752	           -0.093171	           -0.007670	           -0.000784	          -19.546294	           -0.437388	            1.700211	           -0.265467	            1.309871	            1.924703	            0.013937	            0.000312	           -0.001212
            1.331500	           -5.113969	           56.308969	           19.429001	            0.122833	            0.000000	            0.258089	           -0.053538	            0.589495	            0.203401	           15.340385	           37.884557	          -14.610136	           -0.119024	            0.000000	            0.280674	           -0.795780	           -1.965255	            0.757899	           21.770795	            1.783489	            0.183037	            0.375776	            1.310847	            1.913752	           -0.093526	           -0.007662	           -0.000786	          -19.524409	           -0.456120	            1.690891	           -0.265466	            1.309872	            1.924705	            0.014185	            0.000331	           -0.001228
            1.332000	           -6.893264	           73.782530	           30.095256	            0.125238	            0.000000	            0.259399	           -0.054642	            0.584865	            0.238561	           16.518561	           57.508469	           -8.215306	           -0.116678	            0.000000	            0.285105	           -0.667477	           -2.323784	            0.331961	           21.783245	            1.777215	            0.182843	            0.375782	            1.310850	            1.913753	           -0.093882	           -0.007660	           -0.000788	          -19.502414	           -0.474793	            1.681112	           -0.265465	            1.309873	            1.924708	            0.014455	            0.000352	           -0.001246
            1.332500	           -8.803831	           92.673301	           41.664872	            0.126953	            0.000000	            0.260322	           -0.056831	            0.598229	            0.268957	           17.676881	           78.873730	           -0.921259	           -0.117582	            0.000000	            0.286451	           -0.583805	           -2.604921	            0.030426	           21.796454	            1.772433	            0.182384	            0.375789	            1.310853	            1.913754	           -0.094237	           -0.007663	           -0.000789	          -19.480379	           -0.493259	            1.670893	           -0.265464	            1.309874	            1.924711	            0.014748	            0.000373	           -0.001265
